{
    "asset" : {
        "generator" : "Khronos glTF Blender I/O v3.4.50",
        "version" : "2.0"
    },
    "scene" : 0,
    "scenes" : [
        {
            "name" : "Scene",
            "nodes" : [
                1
            ]
        }
    ],
    "nodes" : [
        {
            "mesh" : 0,
            "name" : "gear13",
            "translation" : [
                0,
                0.0006175637245178223,
                0
            ]
        },
        {
            "children" : [
                0
            ],
            "name" : "gear13_grp"
        }
    ],
    "materials" : [
        {
            "doubleSided" : true,
            "name" : "gear_13_mat.001",
            "normalTexture" : {
                "index" : 0
            },
            "occlusionTexture" : {
                "index" : 1
            },
            "pbrMetallicRoughness" : {
                "baseColorTexture" : {
                    "index" : 2
                },
                "metallicRoughnessTexture" : {
                    "index" : 1
                }
            }
        }
    ],
    "meshes" : [
        {
            "name" : "Mesh",
            "primitives" : [
                {
                    "attributes" : {
                        "POSITION" : 0,
                        "TEXCOORD_0" : 1,
                        "NORMAL" : 2
                    },
                    "indices" : 3,
                    "material" : 0
                }
            ]
        }
    ],
    "textures" : [
        {
            "sampler" : 0,
            "source" : 0
        },
        {
            "sampler" : 0,
            "source" : 1
        },
        {
            "sampler" : 0,
            "source" : 2
        }
    ],
    "images" : [
        {
            "mimeType" : "image/png",
            "name" : "Gear13_Normal",
            "uri" : "Gear13_Normal.png"
        },
        {
            "mimeType" : "image/png",
            "name" : "Gear13_AO-Gear13_Roughness-Gear13_Metallic",
            "uri" : "Gear13_AO-Gear13_Roughness-Gear13_Metallic.png"
        },
        {
            "mimeType" : "image/png",
            "name" : "Gear13_BaseColor",
            "uri" : "Gear13_BaseColor.png"
        }
    ],
    "accessors" : [
        {
            "bufferView" : 0,
            "componentType" : 5126,
            "count" : 9892,
            "max" : [
                2.1718716621398926,
                1.2372251749038696,
                2.084198236465454
            ],
            "min" : [
                -2.1718716621398926,
                -0.0006175637245178223,
                -2.084198236465454
            ],
            "type" : "VEC3"
        },
        {
            "bufferView" : 1,
            "componentType" : 5126,
            "count" : 9892,
            "type" : "VEC2"
        },
        {
            "bufferView" : 2,
            "componentType" : 5126,
            "count" : 9892,
            "type" : "VEC3"
        },
        {
            "bufferView" : 3,
            "componentType" : 5123,
            "count" : 54000,
            "type" : "SCALAR"
        }
    ],
    "bufferViews" : [
        {
            "buffer" : 0,
            "byteLength" : 118704,
            "byteOffset" : 0,
            "target" : 34962
        },
        {
            "buffer" : 0,
            "byteLength" : 79136,
            "byteOffset" : 118704,
            "target" : 34962
        },
        {
            "buffer" : 0,
            "byteLength" : 118704,
            "byteOffset" : 197840,
            "target" : 34962
        },
        {
            "buffer" : 0,
            "byteLength" : 108000,
            "byteOffset" : 316544,
            "target" : 34963
        }
    ],
    "samplers" : [
        {
            "magFilter" : 9729,
            "minFilter" : 9987
        }
    ],
    "buffers" : [
        {
            "byteLength" : 424544,
            "uri" : "Gear13.bin"
        }
    ]
}
